# xmcd
#
# Track frame offsets: 
#        150
#        12824
#        27115
#        41763
#        55426
#        68207
#        82580
#        97154
#        112056
#        127091
#
# Disc length: 1859 seconds
#
# Revision: 0
# Processed by: cddbd v1.5.2PL0 Copyright (c) Steve Scherf et al.
# Submitted via: ExactAudioCopy v0.95b4
#
DISCID=8307410a
DTITLE=Charley Pride - I'm Gonna Love Her On the Radio
DYEAR=1988
DGENRE=Classic Country
TTITLE0=I'm Gonna Love Her on the Radio
TTITLE1=She's Soft to Touch (But She's Hard to Hold)
TTITLE2=Shouldn't It Be Easier Than This
TTITLE3=Your Used to Be
TTITLE4=Where Was I
TTITLE5=Come On In and Let Me Love You
TTITLE6=A Whole Lot of Lovin'
TTITLE7=Leavin' Never Gets Me Anywhere
TTITLE8=There Ain't No Me (If There Ain't No You)
TTITLE9=A Little Piece of Heaven
EXTD=
EXTT0=
EXTT1=
EXTT2=
EXTT3=
EXTT4=
EXTT5=
EXTT6=
EXTT7=
EXTT8=
EXTT9=
PLAYORDER=
